<svg width="31" height="31" viewBox="0 0 31 31" fill="none" xmlns="http://www.w3.org/2000/svg">
<path fill-rule="evenodd" clip-rule="evenodd" d="M28.7083 26.2083V13.2683L29.0119 13.5183C29.3672 13.8109 29.8924 13.76 30.1849 13.4048C30.4775 13.0495 30.4267 12.5243 30.0714 12.2317L15.9048 0.565088C15.5971 0.311678 15.153 0.311678 14.8453 0.565088L0.678631 12.2317C0.32336 12.5243 0.272536 13.0495 0.565112 13.4048C0.857688 13.76 1.38287 13.8109 1.73814 13.5183L2.04172 13.2683V26.2083C2.04172 28.5095 3.9072 30.375 6.20838 30.375H11.2084C11.6686 30.375 12.0417 30.0019 12.0417 29.5417V19.5417C12.0417 19.0814 12.4148 18.7083 12.875 18.7083H17.875C18.3353 18.7083 18.7084 19.0814 18.7084 19.5417V29.5417C18.7084 30.0019 19.0815 30.375 19.5417 30.375H24.5417C26.8429 30.375 28.7083 28.5095 28.7083 26.2083Z" fill="#000"/>
</svg>
