<svg width="30" height="30" viewBox="0 0 30 30" fill="none" xmlns="http://www.w3.org/2000/svg">
<path fill-rule="evenodd" clip-rule="evenodd" d="M0 4.1653C0 1.86487 1.86487 0 4.1653 0H14.162C14.383 0 14.5949 0.0877687 14.7511 0.243998L28.5848 14.0777C30.4717 15.9646 30.4717 19.0239 28.5848 20.9108L20.9108 28.5848C19.0239 30.4717 15.9646 30.4717 14.0777 28.5848L0.243998 14.7511C0.0877687 14.5949 0 14.383 0 14.162V4.1653ZM8.33061 6.66449C7.41043 6.66449 6.66449 7.41043 6.66449 8.33061C6.66449 9.25078 7.41043 9.99673 8.33061 9.99673C9.25078 9.99673 9.99673 9.25078 9.99673 8.33061C9.99673 7.41043 9.25078 6.66449 8.33061 6.66449ZM11.6629 8.33061C11.6629 6.49026 10.171 4.99836 8.33061 4.99836C6.49026 4.99836 4.99836 6.49026 4.99836 8.33061C4.99836 10.171 6.49026 11.6629 8.33061 11.6629C10.171 11.6629 11.6629 10.171 11.6629 8.33061Z" fill="#000"/>
</svg>
